<svg width="20" height="21" viewBox="0 0 20 21" fill="none" xmlns="http://www.w3.org/2000/svg">
<path fill-rule="evenodd" clip-rule="evenodd" d="M9.45911 2.15972C9.77092 1.89468 10.2289 1.89468 10.5407 2.15972L18.874 9.24305C19.2254 9.54172 19.2681 10.0687 18.9694 10.4201C18.6708 10.7714 18.1438 10.8142 17.7924 10.5155L17.5016 10.2682V16.2126C17.5016 17.7783 16.2323 19.0476 14.6666 19.0476H5.33322C3.7675 19.0476 2.49823 17.7783 2.49823 16.2126V10.2682L2.20735 10.5155C1.85597 10.8142 1.32901 10.7714 1.03034 10.4201C0.731672 10.0687 0.774399 9.54172 1.12577 9.24305L9.45911 2.15972ZM4.16823 8.84874V16.2126C4.16823 16.856 4.68981 17.3776 5.33322 17.3776H14.6666C15.31 17.3776 15.8316 16.856 15.8316 16.2126V8.84874L9.99989 3.89183L4.16823 8.84874ZM9.99989 10.7143C9.08034 10.7143 8.33489 11.4597 8.33489 12.3793C8.33489 13.2988 9.08034 14.0443 9.99989 14.0443C10.9194 14.0443 11.6649 13.2988 11.6649 12.3793C11.6649 11.4597 10.9194 10.7143 9.99989 10.7143ZM6.66489 12.3793C6.66489 10.5374 8.15802 9.04427 9.99989 9.04427C11.8418 9.04427 13.3349 10.5374 13.3349 12.3793C13.3349 14.2211 11.8418 15.7143 9.99989 15.7143C8.15802 15.7143 6.66489 14.2211 6.66489 12.3793Z" fill="white"/>
</svg>
