<svg width="77" height="19" viewBox="0 0 77 19" fill="none" xmlns="http://www.w3.org/2000/svg">
<path d="M65.2782 11.0262C65.2782 11.7583 65.196 12.5171 65.0316 13.3027H56.9417C57.1391 14.124 57.5584 14.7489 58.1996 15.1774C58.8409 15.6059 59.6877 15.8202 60.74 15.8202C62.039 15.8202 63.2064 15.5702 64.2423 15.0703L64.8589 17.802C64.0861 18.1948 63.338 18.4716 62.6145 18.6323C61.891 18.8108 61.1264 18.9001 60.3207 18.9001C58.9395 18.9001 57.731 18.6323 56.6951 18.0966C55.6592 17.5431 54.8617 16.7665 54.3027 15.7666C53.7436 14.7489 53.4641 13.5437 53.4641 12.1511C53.4641 10.8298 53.719 9.66926 54.2287 8.6694C54.7384 7.65168 55.4619 6.86608 56.3991 6.31259C57.3364 5.74124 58.4298 5.45557 59.6795 5.45557C60.7976 5.45557 61.7759 5.68768 62.6145 6.1519C63.4695 6.61612 64.1272 7.26781 64.5876 8.10698C65.048 8.94615 65.2782 9.91922 65.2782 11.0262ZM59.7535 8.40158C59.0464 8.40158 58.4463 8.61584 57.953 9.04435C57.4597 9.455 57.1226 10.0442 56.9417 10.812H62.2445C62.2445 10.0264 62.0143 9.42822 61.5539 9.01756C61.0935 8.60691 60.4934 8.40158 59.7535 8.40158Z" fill="#522FD3"/>
<path d="M46.5276 5.45557C47.9088 5.45557 49.0187 5.96442 49.8572 6.98214C50.6958 7.982 51.1151 9.30324 51.1151 10.9459V18.6323H47.6621V11.2137C47.6621 9.49964 46.9222 8.64262 45.4424 8.64262C44.6531 8.64262 44.0283 8.93722 43.5679 9.52642C43.1075 10.0978 42.8773 10.8566 42.8773 11.8029V18.6323H39.4243V10.1692C39.4243 9.6514 39.3339 9.28538 39.153 9.07113C38.9886 8.85687 38.7091 8.74974 38.3144 8.74974C38.1336 8.74974 37.9938 8.75867 37.8951 8.77653V5.72339C38.4542 5.61626 38.9721 5.56269 39.449 5.56269C41.0275 5.56269 42.0058 6.22332 42.384 7.54456C43.4363 6.1519 44.8175 5.45557 46.5276 5.45557Z" fill="#522FD3"/>
<path d="M24.4111 14.1867C24.4111 14.7759 24.5262 15.1687 24.7564 15.3651C24.9866 15.5615 25.3894 15.633 25.9649 15.5794V18.6325C25.4223 18.7397 24.9208 18.7932 24.4604 18.7932C23.6712 18.7932 23.0299 18.6325 22.5366 18.3111C22.0598 17.9898 21.7227 17.4898 21.5254 16.8114C20.4566 18.204 19.0836 18.9003 17.4065 18.9003C16.5186 18.9003 15.7293 18.6772 15.0387 18.2308C14.3481 17.7666 13.8137 17.1238 13.4356 16.3025C13.0574 15.4633 12.8683 14.4992 12.8683 13.41V5.72363H16.3213V13.1422C16.3213 14.8563 17.053 15.7133 18.5164 15.7133C19.2398 15.7133 19.8236 15.4187 20.2675 14.8295C20.7279 14.2224 20.9581 13.4636 20.9581 12.553V5.72363H24.4111V14.1867Z" fill="#522FD3"/>
<path d="M7.53432 18.8468C8.61954 18.8468 9.7212 18.6415 10.8393 18.2308L10.2227 15.3383C9.59788 15.5705 8.9895 15.6865 8.39756 15.6865C7.70697 15.6865 7.21369 15.499 6.91772 15.1241C6.63819 14.7313 6.49843 14.1064 6.49843 13.2494V8.74999H10.346V5.72363H0.825684V8.48217L3.04545 8.72321V13.3297C3.04545 15.2044 3.43186 16.5971 4.20467 17.5077C4.97747 18.4004 6.08736 18.8468 7.53432 18.8468Z" fill="#522FD3"/>
<path d="M33.5471 18.8468C34.6324 18.8468 35.734 18.6415 36.8521 18.2308L36.2355 15.3383C35.6107 15.5705 35.0023 15.6865 34.4104 15.6865C33.7198 15.6865 33.2265 15.499 32.9305 15.1241C32.651 14.7313 32.5112 14.1064 32.5112 13.2494V8.74999H36.3588V5.72363H26.8385V8.48217L29.0583 8.72321V13.3297C29.0583 15.2044 29.4447 16.5971 30.2175 17.5077C30.9903 18.4004 32.1002 18.8468 33.5471 18.8468Z" fill="#522FD3"/>
<path d="M73.1196 18.8468C74.2049 18.8468 75.3065 18.6415 76.4246 18.2308L75.808 15.3383C75.1832 15.5705 74.5748 15.6865 73.9829 15.6865C73.2923 15.6865 72.799 15.499 72.503 15.1241C72.2235 14.7313 72.0838 14.1064 72.0838 13.2494V8.74999H75.9314V5.72363H66.411V8.48217L68.6308 8.72321V13.3297C68.6308 15.2044 69.0172 16.5971 69.79 17.5077C70.5628 18.4004 71.6727 18.8468 73.1196 18.8468Z" fill="#522FD3"/>
<path d="M6.50494 2.80069C6.50494 3.85019 5.72142 4.70099 4.75491 4.70099C3.7884 4.70099 3.00488 3.85019 3.00488 2.80069C3.00488 0.900391 3.00488 0.900391 4.75491 0.900391C6.50494 0.900391 6.50494 0.900378 6.50494 2.80069Z" fill="#75C4FD"/>
<path d="M32.5544 2.80069C32.5544 3.85019 31.7709 4.70099 30.8043 4.70099C29.8378 4.70099 29.0543 3.85019 29.0543 2.80069C29.0543 0.900391 29.0543 0.900391 30.8043 0.900391C32.5544 0.900391 32.5544 0.900378 32.5544 2.80069Z" fill="#FD7AAC"/>
<path d="M72.1148 2.80069C72.1148 3.85019 71.3313 4.70099 70.3648 4.70099C69.3983 4.70099 68.6147 3.85019 68.6147 2.80069C68.6147 0.900391 68.6147 0.900391 70.3648 0.900391C72.1148 0.900391 72.1148 0.900378 72.1148 2.80069Z" fill="#FFC060"/>
</svg>
